<?xml version="1.0" encoding="UTF-8" standalone="no"?>
<!-- Created with Inkscape (http://www.inkscape.org/) -->

<svg
   xmlns:dc="http://purl.org/dc/elements/1.1/"
   xmlns:cc="http://creativecommons.org/ns#"
   xmlns:rdf="http://www.w3.org/1999/02/22-rdf-syntax-ns#"
   xmlns:svg="http://www.w3.org/2000/svg"
   xmlns="http://www.w3.org/2000/svg"
   xmlns:sodipodi="http://sodipodi.sourceforge.net/DTD/sodipodi-0.dtd"
   xmlns:inkscape="http://www.inkscape.org/namespaces/inkscape"
   width="744.09448819"
   height="1052.3622047"
   id="svg2"
   version="1.1"
   inkscape:version="0.48.4 r9939"
   sodipodi:docname="fork-off.svg"
   inkscape:export-filename="/tmp/forkoff.png"
   inkscape:export-xdpi="573.31"
   inkscape:export-ydpi="573.31">
  <title
     id="title3237">Fork off &quot;the bird in a tree&quot;</title>
  <defs
     id="defs4" />
  <sodipodi:namedview
     id="base"
     pagecolor="#ffffff"
     bordercolor="#666666"
     borderopacity="1.0"
     inkscape:pageopacity="0.0"
     inkscape:pageshadow="2"
     inkscape:zoom="0.91983541"
     inkscape:cx="170.38073"
     inkscape:cy="526.18109"
     inkscape:document-units="px"
     inkscape:current-layer="layer2"
     showgrid="false"
     inkscape:window-width="1916"
     inkscape:window-height="1155"
     inkscape:window-x="0"
     inkscape:window-y="223"
     inkscape:window-maximized="0">
    <inkscape:grid
       type="xygrid"
       id="grid2982"
       empspacing="5"
       visible="true"
       enabled="true"
       snapvisiblegridlinesonly="true" />
  </sodipodi:namedview>
  <metadata
     id="metadata7">
    <rdf:RDF>
      <cc:Work
         rdf:about="">
        <dc:format>image/svg+xml</dc:format>
        <dc:type
           rdf:resource="http://purl.org/dc/dcmitype/StillImage" />
        <dc:title>Fork off &quot;the bird in a tree&quot;</dc:title>
        <cc:license
           rdf:resource="http://creativecommons.org/licenses/by/3.0/" />
        <dc:date>2014-10-21</dc:date>
        <dc:creator>
          <cc:Agent>
            <dc:title>Laurence Gonsalves</dc:title>
          </cc:Agent>
        </dc:creator>
        <dc:rights>
          <cc:Agent>
            <dc:title>CC Attribution 4.0 International</dc:title>
          </cc:Agent>
        </dc:rights>
        <dc:source>http://xenomachina.com/fork-off</dc:source>
        <dc:contributor>
          <cc:Agent>
            <dc:title>Laurence Gonsalves</dc:title>
          </cc:Agent>
        </dc:contributor>
      </cc:Work>
      <cc:License
         rdf:about="http://creativecommons.org/licenses/by/3.0/">
        <cc:permits
           rdf:resource="http://creativecommons.org/ns#Reproduction" />
        <cc:permits
           rdf:resource="http://creativecommons.org/ns#Distribution" />
        <cc:requires
           rdf:resource="http://creativecommons.org/ns#Notice" />
        <cc:requires
           rdf:resource="http://creativecommons.org/ns#Attribution" />
        <cc:permits
           rdf:resource="http://creativecommons.org/ns#DerivativeWorks" />
      </cc:License>
    </rdf:RDF>
  </metadata>
  <g
     inkscape:label="Layer 1"
     inkscape:groupmode="layer"
     id="layer1" />
  <g
     inkscape:groupmode="layer"
     id="layer2"
     inkscape:label="Dots">
    <rect
       style="fill:#ffffff;fill-opacity:1;stroke:#000000;stroke-width:3.58085632;stroke-miterlimit:4;stroke-opacity:1;stroke-dasharray:none"
       id="rect4010"
       width="716.41913"
       height="946.97949"
       x="13.837662"
       y="52.691341" />
    <g
       id="g3108"
       transform="matrix(3.583678,0,0,3.583678,-541.79068,-1005.9129)">
      <path
         inkscape:connector-curvature="0"
         id="path3065"
         d="m 255,317.36218 0,20 0,20 0,20 0,20 0,20 0,20 0,20"
         style="fill:none;stroke:#000000;stroke-width:1px;stroke-linecap:butt;stroke-linejoin:miter;stroke-opacity:1" />
      <path
         inkscape:connector-curvature="0"
         id="path3067"
         d="m 215,397.36218 0,20 20,20 20,20"
         style="fill:none;stroke:#000000;stroke-width:1px;stroke-linecap:butt;stroke-linejoin:miter;stroke-opacity:1" />
      <path
         inkscape:connector-curvature="0"
         id="path3069"
         d="m 235,377.36218 0,20 0,20 0,20"
         style="fill:none;stroke:#000000;stroke-width:1px;stroke-linecap:butt;stroke-linejoin:miter;stroke-opacity:1" />
      <path
         inkscape:connector-curvature="0"
         id="path3071"
         d="m 275,377.36218 0,20 0,20 0,20 -20,20"
         style="fill:none;stroke:#000000;stroke-width:1px;stroke-linecap:butt;stroke-linejoin:miter;stroke-opacity:1" />
      <path
         inkscape:connector-curvature="0"
         id="path3079"
         d="m 295,397.36218 0,20 0,20 -40,40 0,20"
         style="fill:none;stroke:#000000;stroke-width:1px;stroke-linecap:butt;stroke-linejoin:miter;stroke-opacity:1" />
      <path
         inkscape:connector-curvature="0"
         id="path3081"
         d="m 255,457.36218 0,20"
         style="fill:none;stroke:#000000;stroke-width:1px;stroke-linecap:butt;stroke-linejoin:miter;stroke-opacity:1" />
    </g>
    <text
       sodipodi:linespacing="125%"
       id="text3884"
       y="933.00867"
       x="127.17569"
       style="font-size:137.07719421px;font-style:normal;font-variant:normal;font-weight:500;font-stretch:normal;line-height:125%;letter-spacing:0px;word-spacing:0px;fill:#dcdcdc;fill-opacity:0.78873243;stroke:#000000;stroke-width:3.58367801;stroke-opacity:1;font-family:Orbitron;-inkscape-font-specification:Orbitron Medium"
       xml:space="preserve"><tspan
         style="font-style:normal;font-variant:normal;font-weight:bold;font-stretch:normal;fill:#dcdcdc;fill-opacity:0.78873243;stroke:#000000;stroke-width:3.58367801;stroke-opacity:1;font-family:Impact;-inkscape-font-specification:Impact Bold"
         id="tspan3888"
         y="933.00867"
         x="127.17569"
         sodipodi:role="line">FORK OFF</tspan></text>
    <path
       sodipodi:type="arc"
       style="fill:#6c70ed;fill-opacity:1;stroke:#000000;stroke-width:0.99921262;stroke-miterlimit:4;stroke-opacity:1;stroke-dasharray:none"
       id="path2992"
       sodipodi:cx="275"
       sodipodi:cy="417.36218"
       sodipodi:rx="4"
       sodipodi:ry="4"
       d="m 279,417.36218 a 4,4 0 1 1 -8,0 4,4 0 1 1 8,0 z"
       transform="matrix(3.583678,0,0,3.583678,-541.79068,-1005.9129)" />
    <path
       d="m 279,417.36218 a 4,4 0 1 1 -8,0 4,4 0 1 1 8,0 z"
       sodipodi:ry="4"
       sodipodi:rx="4"
       sodipodi:cy="417.36218"
       sodipodi:cx="275"
       id="path3005"
       style="fill:#6c70ed;fill-opacity:1;stroke:#000000;stroke-width:0.99921262;stroke-miterlimit:4;stroke-opacity:1;stroke-dasharray:none"
       sodipodi:type="arc"
       transform="matrix(3.583678,0,0,3.583678,-541.79068,-1149.26)" />
    <path
       d="m 279,417.36218 a 4,4 0 1 1 -8,0 4,4 0 1 1 8,0 z"
       sodipodi:ry="4"
       sodipodi:rx="4"
       sodipodi:cy="417.36218"
       sodipodi:cx="275"
       id="path3009"
       style="fill:#c38ef1;fill-opacity:1;stroke:#000000;stroke-width:0.99921262;stroke-miterlimit:4;stroke-opacity:1;stroke-dasharray:none"
       sodipodi:type="arc"
       transform="matrix(3.583678,0,0,3.583678,-470.11712,-934.23934)" />
    <path
       sodipodi:type="arc"
       style="fill:#2ee552;fill-opacity:1;stroke:#000000;stroke-width:0.99921262;stroke-miterlimit:4;stroke-opacity:1;stroke-dasharray:none"
       id="path3011"
       sodipodi:cx="275"
       sodipodi:cy="417.36218"
       sodipodi:rx="4"
       sodipodi:ry="4"
       d="m 279,417.36218 a 4,4 0 1 1 -8,0 4,4 0 1 1 8,0 z"
       transform="matrix(3.583678,0,0,3.583678,-613.46424,-934.23934)" />
    <path
       d="m 279,417.36218 a 4,4 0 1 1 -8,0 4,4 0 1 1 8,0 z"
       sodipodi:ry="4"
       sodipodi:rx="4"
       sodipodi:cy="417.36218"
       sodipodi:cx="275"
       id="path3013"
       style="fill:#6c70ed;fill-opacity:1;stroke:#000000;stroke-width:0.99921262;stroke-miterlimit:4;stroke-opacity:1;stroke-dasharray:none"
       sodipodi:type="arc"
       transform="matrix(3.583678,0,0,3.583678,-541.79068,-934.23934)" />
    <path
       sodipodi:type="arc"
       style="fill:#2ee552;fill-opacity:1;stroke:#000000;stroke-width:0.99921262;stroke-miterlimit:4;stroke-opacity:1;stroke-dasharray:none"
       id="path3015"
       sodipodi:cx="275"
       sodipodi:cy="417.36218"
       sodipodi:rx="4"
       sodipodi:ry="4"
       d="m 279,417.36218 a 4,4 0 1 1 -8,0 4,4 0 1 1 8,0 z"
       transform="matrix(3.583678,0,0,3.583678,-613.46424,-1220.9336)" />
    <path
       d="m 279,417.36218 a 4,4 0 1 1 -8,0 4,4 0 1 1 8,0 z"
       sodipodi:ry="4"
       sodipodi:rx="4"
       sodipodi:cy="417.36218"
       sodipodi:cx="275"
       id="path3017"
       style="fill:#eb775f;fill-opacity:1;stroke:#000000;stroke-width:0.99921262;stroke-miterlimit:4;stroke-opacity:1;stroke-dasharray:none"
       sodipodi:type="arc"
       transform="matrix(3.583678,0,0,3.583678,-613.46424,-862.56578)" />
    <path
       sodipodi:type="arc"
       style="fill:#2ee552;fill-opacity:1;stroke:#000000;stroke-width:0.99921262;stroke-miterlimit:4;stroke-opacity:1;stroke-dasharray:none"
       id="path3019"
       sodipodi:cx="275"
       sodipodi:cy="417.36218"
       sodipodi:rx="4"
       sodipodi:ry="4"
       d="m 279,417.36218 a 4,4 0 1 1 -8,0 4,4 0 1 1 8,0 z"
       transform="matrix(3.583678,0,0,3.583678,-613.46424,-1149.26)" />
    <path
       d="m 279,417.36218 a 4,4 0 1 1 -8,0 4,4 0 1 1 8,0 z"
       sodipodi:ry="4"
       sodipodi:rx="4"
       sodipodi:cy="417.36218"
       sodipodi:cx="275"
       id="path3021"
       style="fill:#2ee552;fill-opacity:1;stroke:#000000;stroke-width:0.99921262;stroke-miterlimit:4;stroke-opacity:1;stroke-dasharray:none"
       sodipodi:type="arc"
       transform="matrix(3.583678,0,0,3.583678,-613.46424,-1005.9129)" />
    <path
       sodipodi:type="arc"
       style="fill:#c38ef1;fill-opacity:1;stroke:#000000;stroke-width:0.99921262;stroke-miterlimit:4;stroke-opacity:1;stroke-dasharray:none"
       id="path3023"
       sodipodi:cx="275"
       sodipodi:cy="417.36218"
       sodipodi:rx="4"
       sodipodi:ry="4"
       d="m 279,417.36218 a 4,4 0 1 1 -8,0 4,4 0 1 1 8,0 z"
       transform="matrix(3.583678,0,0,3.583678,-470.11712,-1005.9129)" />
    <path
       sodipodi:type="arc"
       style="fill:#e99d4e;fill-opacity:1;stroke:#000000;stroke-width:0.99921262;stroke-miterlimit:4;stroke-opacity:1;stroke-dasharray:none"
       id="path3025"
       sodipodi:cx="275"
       sodipodi:cy="417.36218"
       sodipodi:rx="4"
       sodipodi:ry="4"
       d="m 279,417.36218 a 4,4 0 1 1 -8,0 4,4 0 1 1 8,0 z"
       transform="matrix(3.583678,0,0,3.583678,-685.1378,-1005.9129)" />
    <path
       d="m 279,417.36218 a 4,4 0 1 1 -8,0 4,4 0 1 1 8,0 z"
       sodipodi:ry="4"
       sodipodi:rx="4"
       sodipodi:cy="417.36218"
       sodipodi:cx="275"
       id="path3027"
       style="fill:#6c70ed;fill-opacity:1;stroke:#000000;stroke-width:0.99921262;stroke-miterlimit:4;stroke-opacity:1;stroke-dasharray:none"
       sodipodi:type="arc"
       transform="matrix(3.583678,0,0,3.583678,-541.79068,-1077.5865)" />
    <path
       transform="matrix(3.583678,0,0,3.583678,-613.46424,-1077.5865)"
       sodipodi:type="arc"
       style="fill:#2ee552;fill-opacity:1;stroke:#000000;stroke-width:0.99921262;stroke-miterlimit:4;stroke-opacity:1;stroke-dasharray:none"
       id="path3031"
       sodipodi:cx="275"
       sodipodi:cy="417.36218"
       sodipodi:rx="4"
       sodipodi:ry="4"
       d="m 279,417.36218 a 4,4 0 1 1 -8,0 4,4 0 1 1 8,0 z" />
    <path
       d="m 279,417.36218 a 4,4 0 1 1 -8,0 4,4 0 1 1 8,0 z"
       sodipodi:ry="4"
       sodipodi:rx="4"
       sodipodi:cy="417.36218"
       sodipodi:cx="275"
       id="path3035"
       style="fill:#e99d4e;fill-opacity:1;stroke:#000000;stroke-width:0.99921262;stroke-miterlimit:4;stroke-opacity:1;stroke-dasharray:none"
       sodipodi:type="arc"
       transform="matrix(3.583678,0,0,3.583678,-685.1378,-1077.5865)" />
    <path
       transform="matrix(3.583678,0,0,3.583678,-685.1378,-1149.26)"
       sodipodi:type="arc"
       style="fill:#e99d4e;fill-opacity:1;stroke:#000000;stroke-width:0.99921262;stroke-miterlimit:4;stroke-opacity:1;stroke-dasharray:none"
       id="path3037"
       sodipodi:cx="275"
       sodipodi:cy="417.36218"
       sodipodi:rx="4"
       sodipodi:ry="4"
       d="m 279,417.36218 a 4,4 0 1 1 -8,0 4,4 0 1 1 8,0 z" />
    <path
       transform="matrix(3.583678,0,0,3.583678,-613.46424,-1292.6071)"
       d="m 279,417.36218 a 4,4 0 1 1 -8,0 4,4 0 1 1 8,0 z"
       sodipodi:ry="4"
       sodipodi:rx="4"
       sodipodi:cy="417.36218"
       sodipodi:cx="275"
       id="path3045"
       style="fill:#2ee552;fill-opacity:1;stroke:#000000;stroke-width:0.99921262;stroke-miterlimit:4;stroke-opacity:1;stroke-dasharray:none"
       sodipodi:type="arc" />
    <path
       sodipodi:type="arc"
       style="fill:#2ee552;fill-opacity:1;stroke:#000000;stroke-width:0.99921262;stroke-miterlimit:4;stroke-opacity:1;stroke-dasharray:none"
       id="path3047"
       sodipodi:cx="275"
       sodipodi:cy="417.36218"
       sodipodi:rx="4"
       sodipodi:ry="4"
       d="m 279,417.36218 a 4,4 0 1 1 -8,0 4,4 0 1 1 8,0 z"
       transform="matrix(3.583678,0,0,3.583678,-613.46424,-1364.2807)" />
    <path
       transform="matrix(3.583678,0,0,3.583678,-756.81136,-1077.5865)"
       sodipodi:type="arc"
       style="fill:#eb775f;fill-opacity:1;stroke:#000000;stroke-width:0.99921262;stroke-miterlimit:4;stroke-opacity:1;stroke-dasharray:none"
       id="path3057"
       sodipodi:cx="275"
       sodipodi:cy="417.36218"
       sodipodi:rx="4"
       sodipodi:ry="4"
       d="m 279,417.36218 a 4,4 0 1 1 -8,0 4,4 0 1 1 8,0 z" />
    <path
       d="m 279,417.36218 a 4,4 0 1 1 -8,0 4,4 0 1 1 8,0 z"
       sodipodi:ry="4"
       sodipodi:rx="4"
       sodipodi:cy="417.36218"
       sodipodi:cx="275"
       id="path3059"
       style="fill:#eb775f;fill-opacity:1;stroke:#000000;stroke-width:0.99921262;stroke-miterlimit:4;stroke-opacity:1;stroke-dasharray:none"
       sodipodi:type="arc"
       transform="matrix(3.583678,0,0,3.583678,-756.81136,-1005.9129)" />
    <path
       transform="matrix(3.583678,0,0,3.583678,-685.1378,-934.23934)"
       sodipodi:type="arc"
       style="fill:#eb775f;fill-opacity:1;stroke:#000000;stroke-width:0.99921262;stroke-miterlimit:4;stroke-opacity:1;stroke-dasharray:none"
       id="path3061"
       sodipodi:cx="275"
       sodipodi:cy="417.36218"
       sodipodi:rx="4"
       sodipodi:ry="4"
       d="m 279,417.36218 a 4,4 0 1 1 -8,0 4,4 0 1 1 8,0 z" />
    <path
       d="m 279,417.36218 a 4,4 0 1 1 -8,0 4,4 0 1 1 8,0 z"
       sodipodi:ry="4"
       sodipodi:rx="4"
       sodipodi:cy="417.36218"
       sodipodi:cx="275"
       id="path3063"
       style="fill:#c38ef1;fill-opacity:1;stroke:#000000;stroke-width:0.99921262;stroke-miterlimit:4;stroke-opacity:1;stroke-dasharray:none"
       sodipodi:type="arc"
       transform="matrix(3.583678,0,0,3.583678,-470.11712,-1077.5865)" />
    <path
       transform="matrix(3.583678,0,0,3.583678,-613.46424,-790.89222)"
       sodipodi:type="arc"
       style="fill:#c38ef1;fill-opacity:1;stroke:#000000;stroke-width:0.99921262;stroke-miterlimit:4;stroke-opacity:1;stroke-dasharray:none"
       id="path3075"
       sodipodi:cx="275"
       sodipodi:cy="417.36218"
       sodipodi:rx="4"
       sodipodi:ry="4"
       d="m 279,417.36218 a 4,4 0 1 1 -8,0 4,4 0 1 1 8,0 z" />
    <path
       d="m 279,417.36218 a 4,4 0 1 1 -8,0 4,4 0 1 1 8,0 z"
       sodipodi:ry="4"
       sodipodi:rx="4"
       sodipodi:cy="417.36218"
       sodipodi:cx="275"
       id="path3077"
       style="fill:#c38ef1;fill-opacity:1;stroke:#000000;stroke-width:0.99921262;stroke-miterlimit:4;stroke-opacity:1;stroke-dasharray:none"
       sodipodi:type="arc"
       transform="matrix(3.583678,0,0,3.583678,-613.46424,-719.21866)" />
  </g>
</svg>
